  0
SECTION
  2
HEADER
  9
$ACADVER
  1
AC1009
  9
$DWGCODEPAGE
  3
ansi_1252
  9
$INSBASE
 10
0.0
 20
0.0
 30
0.0
  9
$EXTMIN
 10
0.0
 20
0.0
 30
0.0
  9
$EXTMAX
 10
841.0
 20
594.0
 30
0.0
  9
$LIMMIN
 10
0.0
 20
0.0
  9
$LIMMAX
 10
841.0
 20
594.0
  9
$ORTHOMODE
 70
     0
  9
$REGENMODE
 70
     1
  9
$FILLMODE
 70
     1
  9
$QTEXTMODE
 70
     0
  9
$MIRRTEXT
 70
     1
  9
$DRAGMODE
 70
     2
  9
$LTSCALE
 40
1.0
  9
$OSMODE
 70
   511
  9
$ATTMODE
 70
     1
  9
$TEXTSIZE
 40
3.5
  9
$TRACEWID
 40
1.0
  9
$TEXTSTYLE
  7
STANDARD
  9
$CLAYER
  8
0
  9
$CELTYPE
  6
BYLAYER
  9
$CECOLOR
 62
   256
  9
$DIMSCALE
 40
1.0
  9
$DIMASZ
 40
6.0
  9
$DIMEXO
 40
1.0
  9
$DIMDLI
 40
3.75
  9
$DIMRND
 40
0.0
  9
$DIMDLE
 40
0.0
  9
$DIMEXE
 40
1.0
  9
$DIMTP
 40
0.0
  9
$DIMTM
 40
0.0
  9
$DIMTXT
 40
3.5
  9
$DIMCEN
 40
2.5
  9
$DIMTSZ
 40
0.0
  9
$DIMTOL
 70
     0
  9
$DIMLIM
 70
     0
  9
$DIMTIH
 70
     1
  9
$DIMTOH
 70
     1
  9
$DIMSE1
 70
     0
  9
$DIMSE2
 70
     0
  9
$DIMTAD
 70
     1
  9
$DIMZIN
 70
     0
  9
$DIMBLK
  1

  9
$DIMASO
 70
     1
  9
$DIMSHO
 70
     1
  9
$DIMPOST
  1

  9
$DIMAPOST
  1

  9
$DIMALT
 70
     0
  9
$DIMALTD
 70
     3
  9
$DIMALTF
 40
0.0393700787
  9
$DIMLFAC
 40
0.2
  9
$DIMTOFL
 70
     1
  9
$DIMTVP
 40
0.0
  9
$DIMTIX
 70
     0
  9
$DIMSOXD
 70
     0
  9
$DIMSAH
 70
     0
  9
$DIMBLK1
  1

  9
$DIMBLK2
  1

  9
$DIMSTYLE
  2
ISO-25
  9
$DIMCLRD
 70
     0
  9
$DIMCLRE
 70
     0
  9
$DIMCLRT
 70
     0
  9
$DIMTFAC
 40
1.0
  9
$DIMGAP
 40
1.524
  9
$LUNITS
 70
     2
  9
$LUPREC
 70
     2
  9
$SKETCHINC
 40
1.0
  9
$FILLETRAD
 40
10.0
  9
$AUNITS
 70
     0
  9
$AUPREC
 70
     2
  9
$MENU
  1
.
  9
$ELEVATION
 40
0.0
  9
$PELEVATION
 40
0.0
  9
$THICKNESS
 40
0.0
  9
$LIMCHECK
 70
     0
  9
$CHAMFERA
 40
10.0
  9
$CHAMFERB
 40
10.0
  9
$SKPOLY
 70
     0
  9
$TDCREATE
 40
2455607.871185243
  9
$TDUPDATE
 40
2455607.871185266
  9
$TDINDWG
 40
0.0000000116
  9
$TDUSRTIMER
 40
2455608.172399259
  9
$USRTIMER
 70
     1
  9
$ANGBASE
 50
0.0
  9
$ANGDIR
 70
     0
  9
$PDMODE
 70
     0
  9
$PDSIZE
 40
-1.0
  9
$PLINEWID
 40
0.0
  9
$COORDS
 70
     1
  9
$SPLFRAME
 70
     0
  9
$SPLINETYPE
 70
     6
  9
$SPLINESEGS
 70
     8
  9
$ATTDIA
 70
     0
  9
$ATTREQ
 70
     1
  9
$HANDLING
 70
     1
  9
$HANDSEED
  5
1A2
  9
$SURFTAB1
 70
     6
  9
$SURFTAB2
 70
     6
  9
$SURFTYPE
 70
     6
  9
$SURFU
 70
     6
  9
$SURFV
 70
     6
  9
$UCSNAME
  2

  9
$UCSORG
 10
0.0
 20
0.0
 30
0.0
  9
$UCSXDIR
 10
1.0
 20
0.0
 30
0.0
  9
$UCSYDIR
 10
0.0
 20
1.0
 30
0.0
  9
$PUCSNAME
  2

  9
$PUCSORG
 10
0.0
 20
0.0
 30
0.0
  9
$PUCSXDIR
 10
1.0
 20
0.0
 30
0.0
  9
$PUCSYDIR
 10
0.0
 20
1.0
 30
0.0
  9
$USERI1
 70
     0
  9
$USERI2
 70
     0
  9
$USERI3
 70
     0
  9
$USERI4
 70
     0
  9
$USERI5
 70
     0
  9
$USERR1
 40
0.0
  9
$USERR2
 40
0.0
  9
$USERR3
 40
0.0
  9
$USERR4
 40
0.0
  9
$USERR5
 40
0.0
  9
$WORLDVIEW
 70
     1
  9
$SHADEDGE
 70
     3
  9
$SHADEDIF
 70
    70
  9
$TILEMODE
 70
     1
  9
$MAXACTVP
 70
    64
  9
$PLIMCHECK
 70
     0
  9
$PEXTMIN
 10
1.000000000000000E+20
 20
1.000000000000000E+20
 30
1.000000000000000E+20
  9
$PEXTMAX
 10
-1.000000000000000E+20
 20
-1.000000000000000E+20
 30
-1.000000000000000E+20
  9
$PLIMMIN
 10
0.0
 20
0.0
  9
$PLIMMAX
 10
420.0
 20
297.0
  9
$UNITMODE
 70
     0
  9
$VISRETAIN
 70
     1
  9
$PLINEGEN
 70
     0
  9
$PSLTSCALE
 70
     1
  0
ENDSEC
  0
SECTION
  2
TABLES
  0
TABLE
  2
VPORT
 70
     1
  0
VPORT
  2
*ACTIVE
 70
     0
 10
0.0
 20
0.0
 11
1.0
 21
1.0
 12
87.31249999999994
 22
0.0000000000000284
 13
0.0
 23
0.0
 14
10.0
 24
10.0
 15
10.0
 25
10.0
 16
0.0
 26
0.0
 36
1.0
 17
0.0
 27
0.0
 37
0.0
 40
291.4630392033317
 41
1.736180904522613
 42
50.0
 43
0.0
 44
0.0
 50
0.0
 51
0.0
 71
    16
 72
  2000
 73
     1
 74
     3
 75
     0
 76
     0
 77
     0
 78
     0
  0
ENDTAB
  0
TABLE
  2
LTYPE
 70
     6
  0
LTYPE
  2
CONTINUOUS
 70
     0
  3
Solid line
 72
    65
 73
     0
 40
0.0
  0
LTYPE
  2
HIDDEN
 70
     0
  3
Hidden __ __ __ __ __ __ __ __ __ __ __ __ __ __
 72
    65
 73
     2
 40
1.905
 49
1.27
 49
-0.635
  0
LTYPE
  2
PHANTOM
 70
     0
  3
Phantom ______  __  __  ______  __  __  ______
 72
    65
 73
     6
 40
12.7
 49
6.35
 49
-1.27
 49
1.27
 49
-1.27
 49
1.27
 49
-1.27
  0
LTYPE
  2
CENTER
 70
     0
  3
Center ____ _ ____ _ ____ _ ____ _ ____ _ ____
 72
    65
 73
     4
 40
10.16
 49
6.35
 49
-1.27
 49
1.27
 49
-1.27
  0
LTYPE
  2
CENTERX2
 70
     0
  3
Center (2x) ________  __  ________  __  _____
 72
    65
 73
     4
 40
20.32
 49
12.7
 49
-2.54
 49
2.54
 49
-2.54
  0
LTYPE
  2
DOT2
 70
     0
  3
Dot (.5x) ........................................
 72
    65
 73
     2
 40
0.635
 49
0.0
 49
-0.635
  0
ENDTAB
  0
TABLE
  2
LAYER
 70
     2
  0
LAYER
  2
0
 70
     0
 62
     7
  6
CONTINUOUS
  0
LAYER
  2
FORMAT
 70
     0
 62
     7
  6
CONTINUOUS
  0
ENDTAB
  0
TABLE
  2
STYLE
 70
     3
  0
STYLE
  2
STANDARD
 70
     0
 40
0.0
 41
1.0
 50
0.0
 71
     0
 42
2.5
  3
txt
  4

  0
STYLE
  2
SLDTEXTSTYLE0
 70
     0
 40
0.0
 41
0.75
 50
0.0
 71
     0
 42
0.2
  3
TXT
  4

  0
STYLE
  2
SLDTEXTSTYLE1
 70
     0
 40
0.0
 41
0.6875
 50
0.0
 71
     0
 42
0.2
  3
TXT
  4

  0
ENDTAB
  0
TABLE
  2
VIEW
 70
     0
  0
ENDTAB
  0
TABLE
  2
UCS
 70
     0
  0
ENDTAB
  0
TABLE
  2
APPID
 70
     1
  0
APPID
  2
ACAD
 70
     0
  0
ENDTAB
  0
TABLE
  2
DIMSTYLE
 70
     1
  0
DIMSTYLE
  2
ISO-25
 70
     0
  3

  4

  5

  6

  7

 40
1.0
 41
2.5
 42
0.625
 43
3.75
 44
1.25
 45
0.0
 46
0.0
 47
0.0
 48
0.0
140
2.5
141
2.5
142
0.0
143
0.0393700787
144
1.0
145
0.0
146
1.0
147
0.625
 71
     0
 72
     0
 73
     0
 74
     0
 75
     0
 76
     0
 77
     1
 78
     8
170
     0
171
     3
172
     1
173
     0
174
     0
175
     0
176
     0
177
     0
178
     0
  0
ENDTAB
  0
ENDSEC
  0
SECTION
  2
BLOCKS
  0
BLOCK
  8
0
  2
$MODEL_SPACE
 70
     0
 10
0.0
 20
0.0
 30
0.0
  3
$MODEL_SPACE
  1

  0
ENDBLK
  5
21
  8
0
  0
BLOCK
 67
     1
  8
0
  2
$PAPER_SPACE
 70
     0
 10
0.0
 20
0.0
 30
0.0
  3
$PAPER_SPACE
  1

  0
ENDBLK
  5
1D
 67
     1
  8
0
  0
BLOCK
  8
0
  2
SW_NOTE_0
 70
     0
 10
0.0
 20
0.0
 30
0.0
  3
SW_NOTE_0
  1

  0
TEXT
  5
9B
  8
0
  6
CONTINUOUS
 62
     0
 10
0.0
 20
0.4336016096999999
 30
0.0
 40
1.5
  1
DEBUR AND
 41
0.75
  7
SLDTEXTSTYLE0
  0
TEXT
  5
9C
  8
0
  6
CONTINUOUS
 62
     0
 10
0.0
 20
-2.0663983345
 30
0.0
 40
1.5
  1
BREAK SHARP
 41
0.75
  7
SLDTEXTSTYLE0
  0
TEXT
  5
9D
  8
0
  6
CONTINUOUS
 62
     0
 10
0.0
 20
-4.566398278599999
 30
0.0
 40
1.5
  1
EDGES
 41
0.75
  7
SLDTEXTSTYLE0
  0
ENDBLK
  5
9A
  8
0
  0
BLOCK
  8
0
  2
SW_NOTE_1
 70
     0
 10
0.0
 20
0.0
 30
0.0
  3
SW_NOTE_1
  1

  0
TEXT
  5
A3
  8
0
  6
CONTINUOUS
 62
     0
 10
0.0
 20
0.4336016096999999
 30
0.0
 40
1.5
  1
UNLESS OTHERWISE SPECIFIED:
 41
0.75
  7
SLDTEXTSTYLE0
  0
TEXT
  5
A4
  8
0
  6
CONTINUOUS
 62
     0
 10
0.0
 20
-2.0663983345
 30
0.0
 40
1.5
  1
DIMENSIONS ARE IN MILLIMETERS
 41
0.75
  7
SLDTEXTSTYLE0
  0
TEXT
  5
A5
  8
0
  6
CONTINUOUS
 62
     0
 10
0.0
 20
-4.566398278599999
 30
0.0
 40
1.5
  1
SURFACE FINISH:
 41
0.75
  7
SLDTEXTSTYLE0
  0
TEXT
  5
A6
  8
0
  6
CONTINUOUS
 62
     0
 10
0.0
 20
-7.0663982227
 30
0.0
 40
1.5
  1
TOLERANCES:
 41
0.75
  7
SLDTEXTSTYLE0
  0
TEXT
  5
A7
  8
0
  6
CONTINUOUS
 62
     0
 10
0.0
 20
-9.5663981668
 30
0.0
 40
1.5
  1
   LINEAR:
 41
0.75
  7
SLDTEXTSTYLE0
  0
TEXT
  5
A8
  8
0
  6
CONTINUOUS
 62
     0
 10
0.0
 20
-12.0663981109
 30
0.0
 40
1.5
  1
   ANGULAR:
 41
0.75
  7
SLDTEXTSTYLE0
  0
ENDBLK
  5
A2
  8
0
  0
BLOCK
  8
0
  2
SW_CENTERMARKSYMBOL_0
 70
     0
 10
0.0
 20
0.0
 30
0.0
  3
SW_CENTERMARKSYMBOL_0
  1

  0
LINE
  5
CE
  8
0
  6
CONTINUOUS
 62
     0
 10
0.0
 20
0.0
 30
0.0
 11
0.0
 21
12.5
 31
0.0
  0
LINE
  5
CF
  8
0
  6
CONTINUOUS
 62
     0
 10
0.0
 20
0.0
 30
0.0
 11
-12.5
 21
0.0
 31
0.0
  0
LINE
  5
D0
  8
0
  6
CONTINUOUS
 62
     0
 10
0.0
 20
0.0
 30
0.0
 11
0.0
 21
-12.5
 31
0.0
  0
LINE
  5
D1
  8
0
  6
CONTINUOUS
 62
     0
 10
0.0
 20
0.0
 30
0.0
 11
12.5
 21
0.0
 31
0.0
  0
LINE
  5
D2
  8
0
  6
CONTINUOUS
 62
     0
 10
0.0
 20
12.5
 30
0.0
 11
0.0
 21
20.3244013776
 31
0.0
  0
LINE
  5
D3
  8
0
  6
CONTINUOUS
 62
     0
 10
-12.5
 20
0.0
 30
0.0
 11
-20.3244013776
 21
0.0
 31
0.0
  0
LINE
  5
D4
  8
0
  6
CONTINUOUS
 62
     0
 10
0.0
 20
-12.5
 30
0.0
 11
0.0
 21
-20.3244013776
 31
0.0
  0
LINE
  5
D5
  8
0
  6
CONTINUOUS
 62
     0
 10
12.5
 20
0.0
 30
0.0
 11
20.3244013776
 21
0.0
 31
0.0
  0
ENDBLK
  5
CD
  8
0
  0
BLOCK
  8
0
  2
SW_CENTERMARKSYMBOL_1
 70
     0
 10
0.0
 20
0.0
 30
0.0
  3
SW_CENTERMARKSYMBOL_1
  1

  0
LINE
  5
DA
  8
0
  6
CONTINUOUS
 62
     0
 10
0.0
 20
0.0
 30
0.0
 11
0.0
 21
12.5
 31
0.0
  0
LINE
  5
DB
  8
0
  6
CONTINUOUS
 62
     0
 10
0.0
 20
0.0
 30
0.0
 11
-12.5
 21
0.0
 31
0.0
  0
LINE
  5
DC
  8
0
  6
CONTINUOUS
 62
     0
 10
0.0
 20
0.0
 30
0.0
 11
0.0
 21
-12.5
 31
0.0
  0
LINE
  5
DD
  8
0
  6
CONTINUOUS
 62
     0
 10
0.0
 20
0.0
 30
0.0
 11
12.5
 21
0.0
 31
0.0
  0
LINE
  5
DE
  8
0
  6
CONTINUOUS
 62
     0
 10
0.0
 20
25.0
 30
0.0
 11
0.0
 21
36.3125
 31
0.0
  0
LINE
  5
DF
  8
0
  6
CONTINUOUS
 62
     0
 10
-25.0
 20
0.0
 30
0.0
 11
-36.3125
 21
0.0
 31
0.0
  0
LINE
  5
E0
  8
0
  6
CONTINUOUS
 62
     0
 10
0.0
 20
-25.0
 30
0.0
 11
0.0
 21
-36.3125
 31
0.0
  0
LINE
  5
E1
  8
0
  6
CONTINUOUS
 62
     0
 10
25.0
 20
0.0
 30
0.0
 11
36.3125
 21
0.0
 31
0.0
  0
ENDBLK
  5
D9
  8
0
  0
BLOCK
  8
0
  2
SW_CENTERMARKSYMBOL_2
 70
     0
 10
0.0
 20
0.0
 30
0.0
  3
SW_CENTERMARKSYMBOL_2
  1

  0
LINE
  5
E6
  8
0
  6
CONTINUOUS
 62
     0
 10
0.0
 20
0.0
 30
0.0
 11
0.0
 21
12.5
 31
0.0
  0
LINE
  5
E7
  8
0
  6
CONTINUOUS
 62
     0
 10
0.0
 20
0.0
 30
0.0
 11
-12.5
 21
0.0
 31
0.0
  0
LINE
  5
E8
  8
0
  6
CONTINUOUS
 62
     0
 10
0.0
 20
0.0
 30
0.0
 11
0.0
 21
-12.5
 31
0.0
  0
LINE
  5
E9
  8
0
  6
CONTINUOUS
 62
     0
 10
0.0
 20
0.0
 30
0.0
 11
12.5
 21
0.0
 31
0.0
  0
LINE
  5
EA
  8
0
  6
CONTINUOUS
 62
     0
 10
0.0
 20
12.5
 30
0.0
 11
0.0
 21
18.85
 31
0.0
  0
LINE
  5
EB
  8
0
  6
CONTINUOUS
 62
     0
 10
-12.5
 20
0.0
 30
0.0
 11
-18.85
 21
0.0
 31
0.0
  0
LINE
  5
EC
  8
0
  6
CONTINUOUS
 62
     0
 10
0.0
 20
-12.5
 30
0.0
 11
0.0
 21
-18.85
 31
0.0
  0
LINE
  5
ED
  8
0
  6
CONTINUOUS
 62
     0
 10
12.5
 20
0.0
 30
0.0
 11
18.85
 21
0.0
 31
0.0
  0
ENDBLK
  5
E5
  8
0
  0
BLOCK
  8
0
  2
SW_CENTERMARKSYMBOL_3
 70
     0
 10
0.0
 20
0.0
 30
0.0
  3
SW_CENTERMARKSYMBOL_3
  1

  0
LINE
  5
F2
  8
0
  6
CONTINUOUS
 62
     0
 10
0.0
 20
0.0
 30
0.0
 11
0.0
 21
12.5
 31
0.0
  0
LINE
  5
F3
  8
0
  6
CONTINUOUS
 62
     0
 10
0.0
 20
0.0
 30
0.0
 11
-12.5
 21
0.0
 31
0.0
  0
LINE
  5
F4
  8
0
  6
CONTINUOUS
 62
     0
 10
0.0
 20
0.0
 30
0.0
 11
0.0
 21
-12.5
 31
0.0
  0
LINE
  5
F5
  8
0
  6
CONTINUOUS
 62
     0
 10
0.0
 20
0.0
 30
0.0
 11
12.5
 21
0.0
 31
0.0
  0
LINE
  5
F6
  8
0
  6
CONTINUOUS
 62
     0
 10
0.0
 20
12.5
 30
0.0
 11
0.0
 21
18.85
 31
0.0
  0
LINE
  5
F7
  8
0
  6
CONTINUOUS
 62
     0
 10
-12.5
 20
0.0
 30
0.0
 11
-18.85
 21
0.0
 31
0.0
  0
LINE
  5
F8
  8
0
  6
CONTINUOUS
 62
     0
 10
0.0
 20
-12.5
 30
0.0
 11
0.0
 21
-18.85
 31
0.0
  0
LINE
  5
F9
  8
0
  6
CONTINUOUS
 62
     0
 10
12.5
 20
0.0
 30
0.0
 11
18.85
 21
0.0
 31
0.0
  0
ENDBLK
  5
F1
  8
0
  0
BLOCK
  8
0
  2
SW_CENTERMARKSYMBOL_4
 70
     0
 10
0.0
 20
0.0
 30
0.0
  3
SW_CENTERMARKSYMBOL_4
  1

  0
LINE
  5
FE
  8
0
  6
CONTINUOUS
 62
     0
 10
0.0
 20
0.0
 30
0.0
 11
0.0
 21
12.5
 31
0.0
  0
LINE
  5
FF
  8
0
  6
CONTINUOUS
 62
     0
 10
0.0
 20
0.0
 30
0.0
 11
-12.5
 21
0.0
 31
0.0
  0
LINE
  5
100
  8
0
  6
CONTINUOUS
 62
     0
 10
0.0
 20
0.0
 30
0.0
 11
0.0
 21
-12.5
 31
0.0
  0
LINE
  5
101
  8
0
  6
CONTINUOUS
 62
     0
 10
0.0
 20
0.0
 30
0.0
 11
12.5
 21
0.0
 31
0.0
  0
LINE
  5
102
  8
0
  6
CONTINUOUS
 62
     0
 10
0.0
 20
12.5
 30
0.0
 11
0.0
 21
18.85
 31
0.0
  0
LINE
  5
103
  8
0
  6
CONTINUOUS
 62
     0
 10
-12.5
 20
0.0
 30
0.0
 11
-18.85
 21
0.0
 31
0.0
  0
LINE
  5
104
  8
0
  6
CONTINUOUS
 62
     0
 10
0.0
 20
-12.5
 30
0.0
 11
0.0
 21
-18.85
 31
0.0
  0
LINE
  5
105
  8
0
  6
CONTINUOUS
 62
     0
 10
12.5
 20
0.0
 30
0.0
 11
18.85
 21
0.0
 31
0.0
  0
ENDBLK
  5
FD
  8
0
  0
BLOCK
  8
0
  2
SW_CENTERMARKSYMBOL_5
 70
     0
 10
0.0
 20
0.0
 30
0.0
  3
SW_CENTERMARKSYMBOL_5
  1

  0
LINE
  5
10A
  8
0
  6
CONTINUOUS
 62
     0
 10
0.0
 20
0.0
 30
0.0
 11
0.0
 21
12.5
 31
0.0
  0
LINE
  5
10B
  8
0
  6
CONTINUOUS
 62
     0
 10
0.0
 20
0.0
 30
0.0
 11
-12.5
 21
0.0
 31
0.0
  0
LINE
  5
10C
  8
0
  6
CONTINUOUS
 62
     0
 10
0.0
 20
0.0
 30
0.0
 11
0.0
 21
-12.5
 31
0.0
  0
LINE
  5
10D
  8
0
  6
CONTINUOUS
 62
     0
 10
0.0
 20
0.0
 30
0.0
 11
12.5
 21
0.0
 31
0.0
  0
LINE
  5
10E
  8
0
  6
CONTINUOUS
 62
     0
 10
0.0
 20
12.5
 30
0.0
 11
0.0
 21
18.85
 31
0.0
  0
LINE
  5
10F
  8
0
  6
CONTINUOUS
 62
     0
 10
-12.5
 20
0.0
 30
0.0
 11
-18.85
 21
0.0
 31
0.0
  0
LINE
  5
110
  8
0
  6
CONTINUOUS
 62
     0
 10
0.0
 20
-12.5
 30
0.0
 11
0.0
 21
-18.85
 31
0.0
  0
LINE
  5
111
  8
0
  6
CONTINUOUS
 62
     0
 10
12.5
 20
0.0
 30
0.0
 11
18.85
 21
0.0
 31
0.0
  0
ENDBLK
  5
109
  8
0
  0
BLOCK
  8
0
  2
SW_CENTERMARKSYMBOL_6
 70
     0
 10
0.0
 20
0.0
 30
0.0
  3
SW_CENTERMARKSYMBOL_6
  1

  0
LINE
  5
116
  8
0
  6
CONTINUOUS
 62
     0
 10
0.0
 20
0.0
 30
0.0
 11
0.0
 21
12.5
 31
0.0
  0
LINE
  5
117
  8
0
  6
CONTINUOUS
 62
     0
 10
0.0
 20
0.0
 30
0.0
 11
-12.5
 21
0.0
 31
0.0
  0
LINE
  5
118
  8
0
  6
CONTINUOUS
 62
     0
 10
0.0
 20
0.0
 30
0.0
 11
0.0
 21
-12.5
 31
0.0
  0
LINE
  5
119
  8
0
  6
CONTINUOUS
 62
     0
 10
0.0
 20
0.0
 30
0.0
 11
12.5
 21
0.0
 31
0.0
  0
LINE
  5
11A
  8
0
  6
CONTINUOUS
 62
     0
 10
0.0
 20
12.5
 30
0.0
 11
0.0
 21
18.85
 31
0.0
  0
LINE
  5
11B
  8
0
  6
CONTINUOUS
 62
     0
 10
-12.5
 20
0.0
 30
0.0
 11
-18.85
 21
0.0
 31
0.0
  0
LINE
  5
11C
  8
0
  6
CONTINUOUS
 62
     0
 10
0.0
 20
-12.5
 30
0.0
 11
0.0
 21
-18.85
 31
0.0
  0
LINE
  5
11D
  8
0
  6
CONTINUOUS
 62
     0
 10
12.5
 20
0.0
 30
0.0
 11
18.85
 21
0.0
 31
0.0
  0
ENDBLK
  5
115
  8
0
  0
BLOCK
  8
0
  2
SW_CENTERMARKSYMBOL_7
 70
     0
 10
0.0
 20
0.0
 30
0.0
  3
SW_CENTERMARKSYMBOL_7
  1

  0
LINE
  5
122
  8
0
  6
CONTINUOUS
 62
     0
 10
0.0
 20
0.0
 30
0.0
 11
0.0
 21
12.5
 31
0.0
  0
LINE
  5
123
  8
0
  6
CONTINUOUS
 62
     0
 10
0.0
 20
0.0
 30
0.0
 11
-12.5
 21
0.0
 31
0.0
  0
LINE
  5
124
  8
0
  6
CONTINUOUS
 62
     0
 10
0.0
 20
0.0
 30
0.0
 11
0.0
 21
-12.5
 31
0.0
  0
LINE
  5
125
  8
0
  6
CONTINUOUS
 62
     0
 10
0.0
 20
0.0
 30
0.0
 11
12.5
 21
0.0
 31
0.0
  0
LINE
  5
126
  8
0
  6
CONTINUOUS
 62
     0
 10
0.0
 20
12.5
 30
0.0
 11
0.0
 21
18.85
 31
0.0
  0
LINE
  5
127
  8
0
  6
CONTINUOUS
 62
     0
 10
-12.5
 20
0.0
 30
0.0
 11
-18.85
 21
0.0
 31
0.0
  0
LINE
  5
128
  8
0
  6
CONTINUOUS
 62
     0
 10
0.0
 20
-12.5
 30
0.0
 11
0.0
 21
-18.85
 31
0.0
  0
LINE
  5
129
  8
0
  6
CONTINUOUS
 62
     0
 10
12.5
 20
0.0
 30
0.0
 11
18.85
 21
0.0
 31
0.0
  0
ENDBLK
  5
121
  8
0
  0
BLOCK
  8
0
  2
SW_CENTERMARKSYMBOL_8
 70
     0
 10
0.0
 20
0.0
 30
0.0
  3
SW_CENTERMARKSYMBOL_8
  1

  0
LINE
  5
12E
  8
0
  6
CONTINUOUS
 62
     0
 10
0.0
 20
0.0
 30
0.0
 11
0.0
 21
12.5
 31
0.0
  0
LINE
  5
12F
  8
0
  6
CONTINUOUS
 62
     0
 10
0.0
 20
0.0
 30
0.0
 11
-12.5
 21
0.0
 31
0.0
  0
LINE
  5
130
  8
0
  6
CONTINUOUS
 62
     0
 10
0.0
 20
0.0
 30
0.0
 11
0.0
 21
-12.5
 31
0.0
  0
LINE
  5
131
  8
0
  6
CONTINUOUS
 62
     0
 10
0.0
 20
0.0
 30
0.0
 11
12.5
 21
0.0
 31
0.0
  0
LINE
  5
132
  8
0
  6
CONTINUOUS
 62
     0
 10
0.0
 20
12.5
 30
0.0
 11
0.0
 21
18.85
 31
0.0
  0
LINE
  5
133
  8
0
  6
CONTINUOUS
 62
     0
 10
-12.5
 20
0.0
 30
0.0
 11
-18.85
 21
0.0
 31
0.0
  0
LINE
  5
134
  8
0
  6
CONTINUOUS
 62
     0
 10
0.0
 20
-12.5
 30
0.0
 11
0.0
 21
-18.85
 31
0.0
  0
LINE
  5
135
  8
0
  6
CONTINUOUS
 62
     0
 10
12.5
 20
0.0
 30
0.0
 11
18.85
 21
0.0
 31
0.0
  0
ENDBLK
  5
12D
  8
0
  0
BLOCK
  8
0
  2
SW_CENTERMARKSYMBOL_9
 70
     0
 10
0.0
 20
0.0
 30
0.0
  3
SW_CENTERMARKSYMBOL_9
  1

  0
LINE
  5
13A
  8
0
  6
CONTINUOUS
 62
     0
 10
0.0
 20
0.0
 30
0.0
 11
0.0
 21
12.5
 31
0.0
  0
LINE
  5
13B
  8
0
  6
CONTINUOUS
 62
     0
 10
0.0
 20
0.0
 30
0.0
 11
-12.5
 21
0.0
 31
0.0
  0
LINE
  5
13C
  8
0
  6
CONTINUOUS
 62
     0
 10
0.0
 20
0.0
 30
0.0
 11
0.0
 21
-12.5
 31
0.0
  0
LINE
  5
13D
  8
0
  6
CONTINUOUS
 62
     0
 10
0.0
 20
0.0
 30
0.0
 11
12.5
 21
0.0
 31
0.0
  0
LINE
  5
13E
  8
0
  6
CONTINUOUS
 62
     0
 10
0.0
 20
12.5
 30
0.0
 11
0.0
 21
18.85
 31
0.0
  0
LINE
  5
13F
  8
0
  6
CONTINUOUS
 62
     0
 10
-12.5
 20
0.0
 30
0.0
 11
-18.85
 21
0.0
 31
0.0
  0
LINE
  5
140
  8
0
  6
CONTINUOUS
 62
     0
 10
0.0
 20
-12.5
 30
0.0
 11
0.0
 21
-18.85
 31
0.0
  0
LINE
  5
141
  8
0
  6
CONTINUOUS
 62
     0
 10
12.5
 20
0.0
 30
0.0
 11
18.85
 21
0.0
 31
0.0
  0
ENDBLK
  5
139
  8
0
  0
BLOCK
  8
0
  2
SW_CENTERMARKSYMBOL_10
 70
     0
 10
0.0
 20
0.0
 30
0.0
  3
SW_CENTERMARKSYMBOL_10
  1

  0
LINE
  5
146
  8
0
  6
CONTINUOUS
 62
     0
 10
0.0
 20
0.0
 30
0.0
 11
0.0
 21
12.5
 31
0.0
  0
LINE
  5
147
  8
0
  6
CONTINUOUS
 62
     0
 10
0.0
 20
0.0
 30
0.0
 11
-12.5
 21
0.0
 31
0.0
  0
LINE
  5
148
  8
0
  6
CONTINUOUS
 62
     0
 10
0.0
 20
0.0
 30
0.0
 11
0.0
 21
-12.5
 31
0.0
  0
LINE
  5
149
  8
0
  6
CONTINUOUS
 62
     0
 10
0.0
 20
0.0
 30
0.0
 11
12.5
 21
0.0
 31
0.0
  0
LINE
  5
14A
  8
0
  6
CONTINUOUS
 62
     0
 10
0.0
 20
12.5
 30
0.0
 11
0.0
 21
18.85
 31
0.0
  0
LINE
  5
14B
  8
0
  6
CONTINUOUS
 62
     0
 10
-12.5
 20
0.0
 30
0.0
 11
-18.85
 21
0.0
 31
0.0
  0
LINE
  5
14C
  8
0
  6
CONTINUOUS
 62
     0
 10
0.0
 20
-12.5
 30
0.0
 11
0.0
 21
-18.85
 31
0.0
  0
LINE
  5
14D
  8
0
  6
CONTINUOUS
 62
     0
 10
12.5
 20
0.0
 30
0.0
 11
18.85
 21
0.0
 31
0.0
  0
ENDBLK
  5
145
  8
0
  0
BLOCK
  8
0
  2
SW_CENTERMARKSYMBOL_11
 70
     0
 10
0.0
 20
0.0
 30
0.0
  3
SW_CENTERMARKSYMBOL_11
  1

  0
LINE
  5
152
  8
0
  6
CONTINUOUS
 62
     0
 10
0.0
 20
0.0
 30
0.0
 11
0.0
 21
12.5
 31
0.0
  0
LINE
  5
153
  8
0
  6
CONTINUOUS
 62
     0
 10
0.0
 20
0.0
 30
0.0
 11
-12.5
 21
0.0
 31
0.0
  0
LINE
  5
154
  8
0
  6
CONTINUOUS
 62
     0
 10
0.0
 20
0.0
 30
0.0
 11
0.0
 21
-12.5
 31
0.0
  0
LINE
  5
155
  8
0
  6
CONTINUOUS
 62
     0
 10
0.0
 20
0.0
 30
0.0
 11
12.5
 21
0.0
 31
0.0
  0
LINE
  5
156
  8
0
  6
CONTINUOUS
 62
     0
 10
0.0
 20
12.5
 30
0.0
 11
0.0
 21
18.85
 31
0.0
  0
LINE
  5
157
  8
0
  6
CONTINUOUS
 62
     0
 10
-12.5
 20
0.0
 30
0.0
 11
-18.85
 21
0.0
 31
0.0
  0
LINE
  5
158
  8
0
  6
CONTINUOUS
 62
     0
 10
0.0
 20
-12.5
 30
0.0
 11
0.0
 21
-18.85
 31
0.0
  0
LINE
  5
159
  8
0
  6
CONTINUOUS
 62
     0
 10
12.5
 20
0.0
 30
0.0
 11
18.85
 21
0.0
 31
0.0
  0
ENDBLK
  5
151
  8
0
  0
BLOCK
  8
0
  2
SW_CENTERMARKSYMBOL_12
 70
     0
 10
0.0
 20
0.0
 30
0.0
  3
SW_CENTERMARKSYMBOL_12
  1

  0
LINE
  5
15E
  8
0
  6
CONTINUOUS
 62
     0
 10
0.0
 20
0.0
 30
0.0
 11
0.0
 21
12.5
 31
0.0
  0
LINE
  5
15F
  8
0
  6
CONTINUOUS
 62
     0
 10
0.0
 20
0.0
 30
0.0
 11
-12.5
 21
0.0
 31
0.0
  0
LINE
  5
160
  8
0
  6
CONTINUOUS
 62
     0
 10
0.0
 20
0.0
 30
0.0
 11
0.0
 21
-12.5
 31
0.0
  0
LINE
  5
161
  8
0
  6
CONTINUOUS
 62
     0
 10
0.0
 20
0.0
 30
0.0
 11
12.5
 21
0.0
 31
0.0
  0
LINE
  5
162
  8
0
  6
CONTINUOUS
 62
     0
 10
0.0
 20
12.5
 30
0.0
 11
0.0
 21
18.85
 31
0.0
  0
LINE
  5
163
  8
0
  6
CONTINUOUS
 62
     0
 10
-12.5
 20
0.0
 30
0.0
 11
-18.85
 21
0.0
 31
0.0
  0
LINE
  5
164
  8
0
  6
CONTINUOUS
 62
     0
 10
0.0
 20
-12.5
 30
0.0
 11
0.0
 21
-18.85
 31
0.0
  0
LINE
  5
165
  8
0
  6
CONTINUOUS
 62
     0
 10
12.5
 20
0.0
 30
0.0
 11
18.85
 21
0.0
 31
0.0
  0
ENDBLK
  5
15D
  8
0
  0
BLOCK
  8
0
  2
SW_CENTERMARKSYMBOL_13
 70
     0
 10
0.0
 20
0.0
 30
0.0
  3
SW_CENTERMARKSYMBOL_13
  1

  0
LINE
  5
16A
  8
0
  6
CONTINUOUS
 62
     0
 10
0.0
 20
0.0
 30
0.0
 11
0.0
 21
12.5
 31
0.0
  0
LINE
  5
16B
  8
0
  6
CONTINUOUS
 62
     0
 10
0.0
 20
0.0
 30
0.0
 11
-12.5
 21
0.0
 31
0.0
  0
LINE
  5
16C
  8
0
  6
CONTINUOUS
 62
     0
 10
0.0
 20
0.0
 30
0.0
 11
0.0
 21
-12.5
 31
0.0
  0
LINE
  5
16D
  8
0
  6
CONTINUOUS
 62
     0
 10
0.0
 20
0.0
 30
0.0
 11
12.5
 21
0.0
 31
0.0
  0
LINE
  5
16E
  8
0
  6
CONTINUOUS
 62
     0
 10
0.0
 20
12.5
 30
0.0
 11
0.0
 21
18.85
 31
0.0
  0
LINE
  5
16F
  8
0
  6
CONTINUOUS
 62
     0
 10
-12.5
 20
0.0
 30
0.0
 11
-18.85
 21
0.0
 31
0.0
  0
LINE
  5
170
  8
0
  6
CONTINUOUS
 62
     0
 10
0.0
 20
-12.5
 30
0.0
 11
0.0
 21
-18.85
 31
0.0
  0
LINE
  5
171
  8
0
  6
CONTINUOUS
 62
     0
 10
12.5
 20
0.0
 30
0.0
 11
18.85
 21
0.0
 31
0.0
  0
ENDBLK
  5
169
  8
0
  0
BLOCK
  8
0
  2
SW_CENTERMARKSYMBOL_14
 70
     0
 10
0.0
 20
0.0
 30
0.0
  3
SW_CENTERMARKSYMBOL_14
  1

  0
LINE
  5
176
  8
0
  6
CONTINUOUS
 62
     0
 10
0.0
 20
0.0
 30
0.0
 11
0.0
 21
12.5
 31
0.0
  0
LINE
  5
177
  8
0
  6
CONTINUOUS
 62
     0
 10
0.0
 20
0.0
 30
0.0
 11
-12.5
 21
0.0
 31
0.0
  0
LINE
  5
178
  8
0
  6
CONTINUOUS
 62
     0
 10
0.0
 20
0.0
 30
0.0
 11
0.0
 21
-12.5
 31
0.0
  0
LINE
  5
179
  8
0
  6
CONTINUOUS
 62
     0
 10
0.0
 20
0.0
 30
0.0
 11
12.5
 21
0.0
 31
0.0
  0
LINE
  5
17A
  8
0
  6
CONTINUOUS
 62
     0
 10
0.0
 20
12.5
 30
0.0
 11
0.0
 21
18.85
 31
0.0
  0
LINE
  5
17B
  8
0
  6
CONTINUOUS
 62
     0
 10
-12.5
 20
0.0
 30
0.0
 11
-18.85
 21
0.0
 31
0.0
  0
LINE
  5
17C
  8
0
  6
CONTINUOUS
 62
     0
 10
0.0
 20
-12.5
 30
0.0
 11
0.0
 21
-18.85
 31
0.0
  0
LINE
  5
17D
  8
0
  6
CONTINUOUS
 62
     0
 10
12.5
 20
0.0
 30
0.0
 11
18.85
 21
0.0
 31
0.0
  0
ENDBLK
  5
175
  8
0
  0
BLOCK
  8
0
  2
SW_CENTERMARKSYMBOL_15
 70
     0
 10
0.0
 20
0.0
 30
0.0
  3
SW_CENTERMARKSYMBOL_15
  1

  0
LINE
  5
182
  8
0
  6
CONTINUOUS
 62
     0
 10
0.0
 20
0.0
 30
0.0
 11
0.0
 21
12.5
 31
0.0
  0
LINE
  5
183
  8
0
  6
CONTINUOUS
 62
     0
 10
0.0
 20
0.0
 30
0.0
 11
-12.5
 21
0.0
 31
0.0
  0
LINE
  5
184
  8
0
  6
CONTINUOUS
 62
     0
 10
0.0
 20
0.0
 30
0.0
 11
0.0
 21
-12.5
 31
0.0
  0
LINE
  5
185
  8
0
  6
CONTINUOUS
 62
     0
 10
0.0
 20
0.0
 30
0.0
 11
12.5
 21
0.0
 31
0.0
  0
LINE
  5
186
  8
0
  6
CONTINUOUS
 62
     0
 10
0.0
 20
12.5
 30
0.0
 11
0.0
 21
18.85
 31
0.0
  0
LINE
  5
187
  8
0
  6
CONTINUOUS
 62
     0
 10
-12.5
 20
0.0
 30
0.0
 11
-18.85
 21
0.0
 31
0.0
  0
LINE
  5
188
  8
0
  6
CONTINUOUS
 62
     0
 10
0.0
 20
-12.5
 30
0.0
 11
0.0
 21
-18.85
 31
0.0
  0
LINE
  5
189
  8
0
  6
CONTINUOUS
 62
     0
 10
12.5
 20
0.0
 30
0.0
 11
18.85
 21
0.0
 31
0.0
  0
ENDBLK
  5
181
  8
0
  0
ENDSEC
  0
SECTION
  2
ENTITIES
  0
ARC
  5
AF
  8
0
  6
CONTINUOUS
 62
     7
 10
142.875
 20
0.0
 30
0.0
 40
142.8749999999999
 50
257.1604115931
 51
102.8395884069
  0
LINE
  5
B0
  8
0
  6
CONTINUOUS
 62
     7
 10
-24.6944435835
 20
-108.3464352414
 30
0.0
 11
111.1250003837
 21
-139.3025591969
 31
0.0
  0
ARC
  5
B1
  8
0
  6
CONTINUOUS
 62
     7
 10
0.0
 20
0.0
 30
0.0
 40
111.125
 50
102.8395884069
 51
257.1604115931
  0
LINE
  5
B2
  8
0
  6
CONTINUOUS
 62
     7
 10
111.1250003837
 20
139.3025517464
 30
0.0
 11
-24.6944435835
 21
108.3464324474
 31
0.0
  0
ARC
  5
B3
  8
0
  6
CONTINUOUS
 62
     7
 10
175.2273806378
 20
58.24072828610002
 30
0.0
 40
6.350000000000037
 50
254.9999999999998
 51
74.99999999999979
  0
ARC
  5
B4
  8
0
  6
CONTINUOUS
 62
     7
 10
142.875
 20
-62.5
 30
0.0
 40
131.35
 50
75.0
 51
105.0
  0
ARC
  5
B5
  8
0
  6
CONTINUOUS
 62
     7
 10
110.5226193622
 20
58.24072828610002
 30
0.0
 40
6.350000000000022
 50
105.0000000000002
 51
285.0000000000002
  0
ARC
  5
B6
  8
0
  6
CONTINUOUS
 62
     7
 10
142.875
 20
-62.5
 30
0.0
 40
118.65
 50
75.0
 51
105.0
  0
ARC
  5
B7
  8
0
  6
CONTINUOUS
 62
     7
 10
142.875
 20
-62.5
 30
0.0
 40
95.07550000000003
 50
75.0
 51
105.0
  0
ARC
  5
B8
  8
0
  6
CONTINUOUS
 62
     7
 10
126.6988096811
 20
-2.129635856899995
 30
0.0
 40
32.57550000000003
 50
105.0
 51
285.0
  0
ARC
  5
B9
  8
0
  6
CONTINUOUS
 62
     7
 10
142.875
 20
-62.5
 30
0.0
 40
29.92450000000002
 50
74.99999999999996
 51
105.0000000000001
  0
ARC
  5
BA
  8
0
  6
CONTINUOUS
 62
     7
 10
159.0511903189
 20
-2.129635856899995
 30
0.0
 40
32.57550000000004
 50
255.0
 51
75.00000000000003
  0
POINT
  5
191
  8
0
 10
-56.12660075669999
 20
56.12660075669999
 30
0.0
  0
POINT
  5
192
  8
0
 10
-79.375
 20
0.0
 30
0.0
  0
POINT
  5
193
  8
0
 10
-56.12660075669999
 20
-56.12660075669999
 30
0.0
  0
POINT
  5
194
  8
0
 10
0.0
 20
-79.375
 30
0.0
  0
POINT
  5
195
  8
0
 10
0.0
 20
79.375
 30
0.0
  0
POINT
  5
196
  8
0
 10
58.68509886499999
 20
84.18990113500001
 30
0.0
  0
POINT
  5
197
  8
0
 10
56.12660075669999
 20
56.12660075669999
 30
0.0
  0
POINT
  5
198
  8
0
 10
142.875
 20
116.8049114395262
 30
0.0
  0
POINT
  5
199
  8
0
 10
0.0
 20
0.0
 30
0.0
  0
POINT
  5
19A
  8
0
 10
227.064901135
 20
84.18990113500001
 30
0.0
  0
POINT
  5
19B
  8
0
 10
261.9375
 20
0.0
 30
0.0
  0
POINT
  5
19C
  8
0
 10
227.064901135
 20
-84.18990113500001
 30
0.0
  0
POINT
  5
19D
  8
0
 10
142.875
 20
-62.5
 30
0.0
  0
POINT
  5
19E
  8
0
 10
56.12660075669999
 20
-56.12660075669999
 30
0.0
  0
POINT
  5
19F
  8
0
 10
58.68509886499999
 20
-84.18990113500001
 30
0.0
  0
POINT
  5
1A0
  8
0
 10
142.875
 20
-119.0625
 30
0.0
  0
ENDSEC
  0
EOF
